<?xml version="1.0" encoding="UTF-8" standalone="no"?>
<!-- Created with Inkscape (http://www.inkscape.org/) -->

<svg
   width="512"
   height="512"
   viewBox="0 0 512 512"
   version="1.1"
   id="svg1"
   inkscape:version="1.4.4 (dcaf3e7, 2026-05-05)"
   sodipodi:docname=".gitignore"
   xmlns:inkscape="http://www.inkscape.org/namespaces/inkscape"
   xmlns:sodipodi="http://sodipodi.sourceforge.net/DTD/sodipodi-0.dtd"
   xmlns="http://www.w3.org/2000/svg"
   xmlns:svg="http://www.w3.org/2000/svg">
  <sodipodi:namedview
     id="namedview1"
     pagecolor="#ffffff"
     bordercolor="#000000"
     borderopacity="0.25"
     inkscape:showpageshadow="2"
     inkscape:pageopacity="0.0"
     inkscape:pagecheckerboard="0"
     inkscape:deskcolor="#d1d1d1"
     inkscape:document-units="px"
     inkscape:zoom="1.2675781"
     inkscape:cx="243.77196"
     inkscape:cy="262.31125"
     inkscape:window-width="1536"
     inkscape:window-height="902"
     inkscape:window-x="0"
     inkscape:window-y="0"
     inkscape:window-maximized="1"
     inkscape:current-layer="layer1" />
  <defs
     id="defs1">
    <filter
       inkscape:collect="always"
       style="color-interpolation-filters:sRGB"
       id="filter3"
       x="-0.037261855"
       y="-0.051415583"
       width="1.0745237"
       height="1.1028312">
      <feGaussianBlur
         inkscape:collect="always"
         stdDeviation="0.096877664"
         id="feGaussianBlur3" />
    </filter>
    <symbol
       id="g4">
      <circle
         style="fill:none;fill-opacity:1;stroke:#000000;stroke-width:5;stroke-linecap:round;stroke-linejoin:round;stroke-dasharray:none;stroke-opacity:1;paint-order:stroke markers fill"
         id="path3"
         cx="247.71649"
         cy="256"
         r="37.867489"
         inkscape:label="EyesOuter" />
      <circle
         style="fill:#000000;fill-opacity:1;stroke:none;stroke-width:8.52884;stroke-linecap:round;stroke-linejoin:round;stroke-dasharray:none;stroke-opacity:1;paint-order:stroke markers fill"
         id="path4"
         cx="252.44994"
         cy="256"
         r="14.802605"
         inkscape:label="eyes" />
      <circle
         style="fill:#ffffff;fill-opacity:1;stroke:none;stroke-width:2.16521;stroke-linecap:round;stroke-linejoin:round;stroke-dasharray:none;stroke-opacity:1;paint-order:stroke markers fill"
         id="circle4"
         cx="256.44995"
         cy="258"
         r="3.7579198"
         inkscape:label="White" />
    </symbol>
  </defs>
  <g
     inkscape:label="Layer 1"
     inkscape:groupmode="layer"
     id="layer1">
    <path
       sodipodi:type="star"
       style="fill:#e8dcc8;stroke-width:7.96;stroke-linecap:round;stroke-linejoin:round;paint-order:stroke fill markers"
       id="path1"
       inkscape:flatsided="true"
       sodipodi:sides="7"
       sodipodi:cx="41.812019"
       sodipodi:cy="71.001541"
       sodipodi:r1="269.27017"
       sodipodi:r2="134.63509"
       sodipodi:arg1="1.482789"
       sodipodi:arg2="1.9315879"
       inkscape:rounded="0.2"
       inkscape:randomized="0"
       d="m 65.479188,339.2296 c -46.551917,4.10752 -186.384038,-48.65211 -218.620068,-82.48686 -32.23604,-33.83476 -78.1708,-176.055001 -71.81656,-222.353773 6.35424,-46.298773 88.90664,-170.884887 129.066285,-194.783757 40.159641,-23.89887 189.03557,-37.03497 232.759585,-20.5376 43.72401,16.49737 146.81686,124.703036 161.18017,169.17379 14.36331,44.470754 -5.95795,192.53711 -31.7712,231.49386 C 240.46414,258.69201 112.03111,335.12208 65.479188,339.2296 Z"
       inkscape:transform-center-x="5.052171"
       inkscape:transform-center-y="7.815136"
       transform="translate(217.37111,180.41905)" />
    <rect
       style="fill:#4d4d4d;fill-opacity:1;stroke:#4d4d4d;stroke-width:10;stroke-linecap:round;stroke-linejoin:round;stroke-dasharray:none;paint-order:stroke markers fill;opacity:0.351"
       id="rect2"
       width="140.42528"
       height="101.76888"
       x="137.26964"
       y="-124.28043"
       ry="9.8613234"
       inkscape:label="IconsUiShadowTemplateDropShadowPickOne" />
    <rect
       style="opacity:0.15;fill:#4d4d4d;fill-opacity:1;stroke:#4d4d4d;stroke-width:10;stroke-linecap:round;stroke-linejoin:round;stroke-dasharray:none;paint-order:stroke markers fill;filter:url(#filter3)"
       id="rect3"
       width="140.42528"
       height="101.76888"
       x="130.16948"
       y="-131.38058"
       ry="9.8613234"
       inkscape:label="IconsUiShadowTemplateSoftShadowPickOne" />
    <rect
       style="fill:#fce8b1;fill-opacity:1;stroke:#4d4d4d;stroke-width:10;stroke-linecap:round;stroke-linejoin:round;stroke-dasharray:none;paint-order:stroke markers fill"
       id="rect1"
       width="140.425"
       height="101.76888"
       x="134.11401"
       y="-127.80277"
       ry="10"
       inkscape:label="IconsUiShadowTemplateObject" />
    <rect
       style="opacity:0.4;fill:#fcffff;fill-opacity:1;stroke:none;stroke-width:5.03876;stroke-linecap:round;stroke-linejoin:round;stroke-dasharray:none;paint-order:stroke markers fill"
       id="rect4"
       width="70.75679"
       height="51.278896"
       x="134.29173"
       y="-126.9584"
       ry="5.0387602"
       inkscape:label="Highlight" />
    <path
       d="m 241.9269,366.39403 c -57.62795,-38.47522 -22.06303,-153.51765 -79.69098,-191.99287 -0.37604,-0.25107 -1.04742,-0.33005 -1.35646,0 -5.88223,6.28209 1.32557,17.16445 1.69554,25.76261 0.47914,11.13535 0.5652,22.28499 0.67825,33.43007 0.44899,44.26445 31.3013,101.49889 0,132.80019 -6.63412,6.63412 -21.51208,6.63412 -28.1462,0 -51.61462,-51.61462 -51.61462,-167.36766 0,-218.98228 10.63057,-10.63057 32.59578,-8.34386 45.10171,0 53.87907,35.94771 20.7253,143.47056 74.60437,179.41827 0.37611,0.25094 0.9795,0.24973 1.35641,0 54.14016,-35.87097 21.82062,-143.5473 75.96078,-179.41827 12.43846,-8.2412 34.21198,-10.55065 44.76263,0 51.61462,51.61462 51.61462,167.36766 0,218.98228 -7.1137,7.1137 -23.06716,7.1137 -30.18086,0 -31.73504,-31.73504 -0.48172,-89.76283 0,-134.64037 0.11305,-10.53178 0.2151,-21.06769 0.67825,-31.58989 0.37396,-8.49589 7.50559,-19.24602 1.69553,-25.45594 -0.30891,-0.33017 -0.97977,-0.25011 -1.35645,0 -57.75594,38.34882 -22.95237,153.33738 -80.70831,191.6862 -6.96851,4.62695 -18.13748,4.64465 -25.09421,0 z"
       id="text1"
       style="font-size:74.6667px;font-family:FontAwesome;-inkscape-font-specification:FontAwesome;white-space:pre;inline-size:72.96;fill:#3d3d50;stroke-width:34.3805;stroke-linecap:round;stroke-linejoin:round;paint-order:stroke fill markers"
       aria-label="M"
       sodipodi:nodetypes="aaaaaaaaaaaaaaaaaaaaa" />
  </g>
</svg>
